<?xml version="1.0" encoding="UTF-8" standalone="no"?>
<!-- Created with Inkscape (http://www.inkscape.org/) -->

<svg
   version="1.1"
   id="svg2"
   xml:space="preserve"
   width="476.18246"
   height="171.2782"
   viewBox="0 0 476.18247 171.2782"
   sodipodi:docname="meetup-logo.svg"
   inkscape:export-filename="/home/bibermann/specios/landing-page/meetup-logo.png"
   inkscape:export-xdpi="96"
   inkscape:export-ydpi="96"
   inkscape:version="1.1.2 (0a00cf5339, 2022-02-04)"
   xmlns:inkscape="http://www.inkscape.org/namespaces/inkscape"
   xmlns:sodipodi="http://sodipodi.sourceforge.net/DTD/sodipodi-0.dtd"
   xmlns="http://www.w3.org/2000/svg"
   xmlns:svg="http://www.w3.org/2000/svg"><defs
     id="defs6"><clipPath
       clipPathUnits="userSpaceOnUse"
       id="clipPath16"><path
         d="M 0,500 H 500 V 0 H 0 Z"
         id="path14" /></clipPath></defs><sodipodi:namedview
     id="namedview4"
     pagecolor="#505050"
     bordercolor="#eeeeee"
     borderopacity="1"
     inkscape:pageshadow="0"
     inkscape:pageopacity="0"
     inkscape:pagecheckerboard="0"
     showgrid="false"
     fit-margin-top="0"
     fit-margin-left="0"
     fit-margin-right="0"
     fit-margin-bottom="0"
     inkscape:zoom="1.278"
     inkscape:cx="169.01409"
     inkscape:cy="84.898281"
     inkscape:window-width="1920"
     inkscape:window-height="1055"
     inkscape:window-x="1920"
     inkscape:window-y="0"
     inkscape:window-maximized="1"
     inkscape:current-layer="g8" /><g
     id="g8"
     inkscape:groupmode="layer"
     inkscape:label="meetup-logo-script"
     transform="matrix(1.3333333,0,0,-1.3333333,-95.817598,418.27194)"><g
       id="g10"><g
         id="g12"
         clip-path="url(#clipPath16)"><g
           id="g18"
           transform="translate(428.981,238.6626)"><path
             d="m 0,0 c -0.043,0.475 -0.157,0.966 -0.352,1.471 -1.192,3.087 -6.611,0.207 -8.459,-0.566 -3.332,-1.394 -7.141,-3.232 -10.828,-2.178 -1.022,0.292 -0.722,1.16 0,1.601 0.359,0.219 9.831,5.568 12.617,17.418 4.456,18.957 -9.227,24.228 -14.625,24.868 -5.49,0.651 -11.612,-0.196 -14.193,-1.232 -7.312,-2.932 -9.221,-9.45 -9.725,-13.356 -0.694,-5.371 -0.771,-14.742 -1.438,-18.96 -0.439,-2.776 -2.507,-6.992 -6.591,-6.591 -7.873,0.773 -11.489,3.791 -11.239,8.743 0.176,3.48 0.126,4.175 1.224,11.895 0.941,6.611 1.539,8.192 1.539,9.704 0,4.332 -5.835,5.206 -7.784,3.258 -1.507,-1.507 -1.884,-4.582 -2.259,-9.773 -0.355,-4.877 -1.104,-11.223 -2.072,-15.094 -1.506,-6.026 -2.108,-6.467 -3.483,-8.192 -2.856,-3.582 -8.129,-2.469 -10.703,-0.027 -1.515,1.437 -1.719,2.714 -1.426,6.937 0.294,4.224 0.987,11.58 1.956,19.252 0.848,6.712 0.264,7.722 -1.8,9.605 -1.92,1.751 -9.28,1.49 -12.687,1.49 -5.272,0 -4.958,-2.504 -5.305,-11.046 -0.152,-3.73 -0.326,-9.388 -0.698,-13.769 -0.606,-7.126 -14.236,-12.495 -20.505,-12.172 -6.496,0.335 -7.122,12.438 -7.532,15.253 -0.411,2.815 -0.578,27.111 0.126,27.931 0.497,0.582 4.408,1.022 8.865,1.893 9.866,1.928 11.283,3.192 11.298,6.278 0.007,1.51 -0.09,3.627 -1.772,4.196 -0.984,0.332 -3.536,0.712 -6.926,1.111 -9.77,1.148 -11.146,0.794 -11.201,2.033 -0.094,2.164 0.112,6.33 -0.062,7.971 -0.427,4.031 -5.161,5.388 -10.498,5.036 -1.054,-0.069 -2.509,-0.41 -2.625,-1.817 -0.118,-1.408 -0.108,-2.496 -0.278,-4.883 -0.378,-5.3 -0.485,-5.873 -2.542,-5.865 -1.836,0.008 -17.09,1.356 -20.023,0.418 -2.932,-0.939 -2.816,-2.932 -3.05,-3.93 -0.234,-0.997 0.294,-6.979 0.586,-9.56 0.294,-2.581 0.86,-6.091 1.211,-6.619 0.352,-0.528 1.455,-2.025 4.516,-1.643 10.406,1.301 17.346,2.872 18.754,3.224 1.408,0.352 1.569,0.527 1.583,-0.587 0.009,-0.631 0.269,-13.316 0.315,-17.08 0.077,-6.442 1.166,-25.107 -16.227,-28 -7.236,-1.203 -14.02,0.901 -17.104,4.294 -1.75,1.926 -0.891,2.177 -0.118,3.432 1.171,1.901 10.945,13.366 2.754,25.254 -4.832,7.013 -16.413,7.57 -20.619,5.749 -3.258,-1.41 -5.894,-5.781 -6.403,-11.11 -1.569,-16.445 7.857,-26.615 8.223,-27.242 0.44,-0.753 -1.209,-3.174 -6.967,-4.016 -7.721,-1.13 -19.578,8.168 -19.27,9.377 0.147,0.581 5.398,9.165 5.524,17.458 0.043,2.822 -0.89,6.54 -2.825,10.294 -1.935,3.753 -8.029,9.548 -14.626,8.278 -15.521,-2.989 -13.752,-18.294 -12.673,-22.471 2.229,-8.639 7.457,-16.265 8.312,-17.79 1.161,-2.072 -32.841,-15.541 -34.16,-2.932 -1.307,12.498 17.283,39.448 15.819,49.908 -1.318,9.416 -7.664,11.389 -13.182,11.487 -5.364,0.096 -6.78,-0.759 -8.594,-1.812 -1.046,-0.606 -2.547,-1.809 -4.634,0.176 -1.387,1.319 -2.302,2.243 -3.769,3.416 -0.746,0.596 -1.935,1.349 -3.93,1.642 -1.993,0.293 -4.574,0 -6.216,-0.703 -1.643,-0.704 -2.933,-1.937 -4.282,-3.109 -1.349,-1.173 -4.771,-5.006 -7.961,-3.593 -1.382,0.613 -6.07,2.954 -9.449,4.416 -6.527,2.825 -15.942,-1.751 -19.332,-7.777 -5.042,-8.965 -15.001,-44.189 -16.508,-48.834 -3.383,-10.431 4.284,-18.934 14.625,-18.444 4.37,0.205 7.281,1.804 10.043,6.826 1.595,2.9 16.587,42.061 17.701,43.938 0.809,1.362 3.507,3.16 5.794,1.986 2.287,-1.173 2.743,-3.618 2.405,-5.923 -0.547,-3.727 -11.12,-27.615 -11.526,-30.32 -0.691,-4.597 1.494,-7.152 6.264,-7.403 3.27,-0.172 6.529,1.005 9.114,5.881 1.447,2.728 18.12,36.124 19.595,38.353 1.622,2.446 2.926,3.252 4.576,3.166 1.282,-0.065 3.332,-0.394 2.819,-4.234 -0.502,-3.766 -13.908,-28.272 -15.315,-34.272 -2.134,-9.101 3.704,-21.341 19.333,-21.906 7.769,-0.28 25.749,3.106 35.881,10.784 3.676,2.787 2.703,3.027 4.994,0.998 3.295,-2.919 9.416,-7.03 15.442,-7.03 13.687,0 23.678,8.543 24.133,8.85 0.149,0.1 0.345,0.077 0.465,-0.054 0.831,-0.898 9.316,-5.625 15.26,-5.82 14.154,-0.465 22.536,7.389 25.702,11.083 2.391,2.79 4.147,5.311 4.864,6.381 0.183,0.272 0.571,0.3 0.792,0.058 0.847,-0.929 7.23,-12.658 19.909,-11.041 7.072,0.903 17.592,6.868 18.328,7.672 0.166,0.181 0.462,0.123 0.545,-0.108 0.37,-1.022 1.989,-6.777 8.474,-11.354 5.315,-3.753 15.546,-4.506 20.086,-2.009 3.762,2.068 5.272,3.39 7.908,6.025 1.133,1.133 2.856,2.282 5.964,1.622 3.473,-0.737 12.659,-2.361 13.243,-2.64 0.659,-0.314 0.763,-1.514 0.565,-2.762 -0.312,-1.974 -1.057,-8.884 -1.82,-15.335 -0.762,-6.452 -3.198,-27.978 2.573,-28.776 3.489,-0.483 6.517,2.819 7.318,6.041 2.006,8.083 2.374,17.181 3.695,24.987 1.573,9.289 2.201,11.895 2.766,12.93 0.468,0.861 0.471,0.659 6.972,0.107 4.506,-0.383 8.16,-1.011 13.588,-0.253 C -8.736,-8.929 0.494,-5.525 0,0 m -224.891,20.879 c -0.214,-3.04 -0.998,-4.969 -2.61,-7.768 -1.005,-1.746 -2.047,-0.44 -2.651,0.424 -0.867,1.239 -5.312,12.024 -1.919,14.249 0.954,0.626 2.85,0.987 4.22,0.22 1.371,-0.767 2.198,-1.882 2.577,-3.124 0.383,-1.261 0.527,-1.967 0.383,-4.001 m 42.125,-1.565 c -0.399,-3.503 -1.883,-5.483 -2.431,-6.217 -0.969,-1.299 -1.356,-1.809 -2.285,-0.866 -0.751,0.761 -3.566,6.485 -3.974,10.258 -0.219,2.031 0.342,4.929 2.048,5.61 1.794,0.716 3.612,0.39 4.887,-1.276 2.009,-2.624 2.037,-5.022 1.755,-7.509 M -29.903,3.968 c -2.113,-0.867 -3.035,-0.337 -2.912,3.154 0.026,0.751 3.419,18.262 9.912,21.437 1.84,0.899 3.704,0.858 4.996,-0.579 2.445,-2.721 1.802,-6.911 -0.035,-10.733 -2.666,-5.546 -9.057,-12.088 -11.961,-13.279"
             style="fill:#ed1c40;fill-opacity:1;fill-rule:nonzero;stroke:none"
             id="path20" /></g></g></g></g></svg>
